PathFileType	4	(X/Y/Z)	40_2_4_p0_0-264_filt_butterworth.trc
DataRate	CameraRate	NumFrames	NumMarkers	Units	OrigDataRate	OrigDataStartFrame	OrigNumFrames
60.0	60.0	4	27	m	60.0	0	264
Frame#	Time	RHip			RKnee			RAnkle			RBigToe			RSmallToe			RHeel			LHip			LKnee			LAnkle			LBigToe			LSmallToe			LHeel			Neck			Head			Nose			RShoulder			RElbow			RWrist			RThumb			RIndex			RPinky			LShoulder			LElbow			LWrist			LThumb			LIndex			LPinky			
		X1	Y1	Z1	X2	Y2	Z2	X3	Y3	Z3	X4	Y4	Z4	X5	Y5	Z5	X6	Y6	Z6	X7	Y7	Z7	X8	Y8	Z8	X9	Y9	Z9	X10	Y10	Z10	X11	Y11	Z11	X12	Y12	Z12	X13	Y13	Z13	X14	Y14	Z14	X15	Y15	Z15	X16	Y16	Z16	X17	Y17	Z17	X18	Y18	Z18	X19	Y19	Z19	X20	Y20	Z20	X21	Y21	Z21	X22	Y22	Z22	X23	Y23	Z23	X24	Y24	Z24	X25	Y25	Z25	X26	Y26	Z26	X27	Y27	Z27	
0	0.0	0.346483869404798	0.5581888616182621	0.8638013045820615	0.3064781606993052	0.6974930094223648	1.301464320780164	0.2882310751799688	0.8241918807098565	1.68198723464659	0.29868850624047294	0.6511567699957028	1.7010723212574579	0.3534910890071286	0.7191200818895647	1.7206439808194274	0.26578242968965393	0.9313615580724626	1.7511677564808779	0.11815056866954515	0.5964985738523346	0.8946210611719815	0.10242311100839946	0.7448434814594652	1.3255261118164878	0.11304056065232583	0.8496517125861477	1.7099566038796066	0.15454057248145353	0.6424292103534105	1.6999660854903749	0.1194074258393817	0.6549049958920892	1.7016665945758973	0.1194096555335746	0.9064702367138203	1.7414336010167806	0.25802856744738917	0.47227645416446734	0.35456919745911303	0.2692072428860669	0.41072914521989723	0.11738739287045341	0.28413456320474145	0.30556962866804865	0.2520874140993724	0.39644443661581924	0.5072702962739745	0.44424998665808607	0.442187728527851	0.47122031306707424	0.6862994733750255	0.31985248314964393	0.40578082326417375	0.8869287993410325	0.2513006031100868	0.44917203206294115	0.975993718594059	0.2403046429963248	0.4775574496050988	0.98522053508739	0.23131869461737758	0.4373414504728335	0.9736670435108192	0.08188935292628416	0.47178308410071956	0.4210740283141905	0.04861459914736552	0.4931144897559241	0.6785460977245426	0.1453303347533154	0.42762856557923434	0.8926265195172811	0.26698283618118	0.34116041599705615	0.902116888610869	0.2640190456498908	0.34868696512311126	0.9617172195037903	0.21233145575586843	0.37012495098725184	0.9794958914558092
1	0.0166666666666666	0.3480030726713338	0.5661922107054366	0.8645590827657645	0.30627962328747405	0.697531333931486	1.3025379872821359	0.2879513422402534	0.8245849461977218	1.6833578397375843	0.2985235762220019	0.6505641229947857	1.7010352380050546	0.353310583417888	0.718659021402747	1.7206196020822142	0.26555025963939455	0.9317873451709426	1.7501610055431696	0.11851800798033556	0.5963041136881926	0.8929298752219266	0.10280029337465502	0.7432587099496615	1.323922464894303	0.11334897375615456	0.8517470767886904	1.7132906002300716	0.15476582629820196	0.6427444050073704	1.7006184480778415	0.11782386475526714	0.6539413499953276	1.701824103284081	0.11955600613712859	0.907728640218435	1.7428962955803788	0.25809169476421634	0.47226797100456525	0.3545359326698433	0.27036305057014043	0.40816542135104433	0.11774862487834364	0.28391993488149486	0.3047528341940143	0.25035743765334806	0.39658462977383185	0.5071735498147503	0.44414915778847414	0.442065618674062	0.4710285986014945	0.6863243472455656	0.31978710400598537	0.41984644233190377	0.8896687610955191	0.2475379602688544	0.4488471790548212	0.9752363201188006	0.23932895242649063	0.46949270560287953	0.9838249823290589	0.23285024288519424	0.44934468662484783	0.9752459376797267	0.08553795712239443	0.4645571445690181	0.42119808278317583	0.048069463296847956	0.48708738948695895	0.6807149877725023	0.14536502602261137	0.4277262506948003	0.8925289337356964	0.2630030290357064	0.34470850298520767	0.9016992386402064	0.2657265158091782	0.34538288510294063	0.9601264137270589	0.2151359264578446	0.37725552547088714	0.9784146958985979
2	0.0333333333333333	0.3490109367876515	0.5710063157115923	0.8646143366699529	0.3062015662775467	0.697569618728229	1.30295785930464	0.28782413970530535	0.824745009575749	1.6839556556928705	0.2984083464918619	0.6500345633334197	1.7009627957315177	0.353141005559251	0.718267045455162	1.7205468129471582	0.2654923324385426	0.9318872758088281	1.7501024766685962	0.11866071580657861	0.5958923836814809	0.8915086690619403	0.10291736287109114	0.7419909815296823	1.3212728946084946	0.11340909339010302	0.8531688268931698	1.7146398863920154	0.15503409266581192	0.6423223364530727	1.6996449280691004	0.11633100746882971	0.6530116916661174	1.7018363551579507	0.11965496498530427	0.9084134683123121	1.7432855892332517	0.2581398018033973	0.47223778246491094	0.35454578778576595	0.27093424157940843	0.406897019844653	0.1179234666109675	0.28389985644197663	0.304500074301761	0.24934097006865724	0.39666126137534347	0.5071964819351937	0.44417247867639853	0.4421745767732575	0.4710179546638674	0.6869166267202055	0.31965642282313095	0.43060846488300936	0.8915621649199292	0.24519422825253095	0.4486179409851723	0.9742866123149583	0.23854593312399916	0.4644120940195034	0.9824912834841482	0.23399344861948512	0.45828167520685437	0.9763771714694292	0.08772041962755851	0.46023138623127763	0.42128016739713875	0.0477394609903237	0.4834470420386827	0.6820429031746161	0.1453248419488205	0.42794058357807	0.8925160752801478	0.26093851898460835	0.348598178967241	0.901114973853034	0.2672874925811042	0.34681787493878297	0.9591947892608889	0.217312017254349	0.381783356328285	0.9777812171706937
3	0.05	0.3494747610460743	0.5723693078374337	0.8636963134805852	0.30629992813973106	0.6976285877875874	1.30262627452335	0.2879106532060229	0.8245908567785234	1.683548999543587	0.2983571177924933	0.6498009576591873	1.700915639280922	0.3530183288071713	0.7182846268244001	1.7204960753403782	0.26557781912342676	0.9317211923734774	1.75067645720874	0.11858257781250078	0.5951133870547318	0.8899430185081693	0.10283121998469205	0.7412645530847466	1.318138355258837	0.11323754519690267	0.8537805066238418	1.7140203422890872	0.15531963381230518	0.6415632059834964	1.6977004658639547	0.11531571329446749	0.6523456722907764	1.70173176989063	0.11971138724801278	0.9086564397024891	1.7429236072373966	0.2581674964654142	0.47218110740478925	0.35459454727815515	0.27158512411387803	0.4054549820024869	0.118096510231532	0.28436628855624957	0.3047989224907939	0.2490659190208736	0.3966426650389663	0.5075184614074647	0.44456575209965143	0.4428516945600258	0.4714349203239631	0.688513894870106	0.319371014930977	0.4371829899806767	0.8924964846521096	0.2440742053658138	0.4494501471853129	0.9734913720112496	0.23773222297085664	0.4628910182215097	0.9814834391708487	0.23457336569621684	0.4627426691503529	0.9769105553759174	0.08831820309979294	0.4590112010488815	0.42132067889468133	0.04764284355097506	0.48237692642028374	0.6824580874815123	0.14522238162015294	0.4282582973205873	0.8925909322328089	0.26096909361638465	0.35311985440440136	0.9004616180488195	0.26891599365733765	0.3541388767555837	0.9590169948171166	0.21856891184156396	0.3838379267592911	0.9777324048691968
